<svg width="18" height="18" viewBox="0 0 18 18" fill="none" xmlns="http://www.w3.org/2000/svg">
<path d="M15 9.20552C15 9.49029 14.7884 9.72564 14.5138 9.76289L14.4375 9.76802L4.5495 9.76757L8.12174 13.3252C8.34188 13.5444 8.34265 13.9006 8.12345 14.1207C7.92418 14.3208 7.61173 14.3397 7.39117 14.1768L7.32796 14.1224L2.79046 9.60442C2.76144 9.57553 2.73624 9.54426 2.71485 9.51124C2.70881 9.5013 2.70265 9.49113 2.69682 9.48076C2.69146 9.47186 2.68661 9.46263 2.68204 9.4533C2.67569 9.43971 2.66949 9.42568 2.66386 9.41136C2.65928 9.40032 2.65546 9.38959 2.65197 9.37877C2.64783 9.36534 2.6438 9.35104 2.64034 9.33652C2.63776 9.32639 2.63572 9.31663 2.63394 9.30684C2.63144 9.29226 2.62931 9.27718 2.62779 9.26192C2.62648 9.25028 2.62569 9.23875 2.62526 9.22721C2.62514 9.22021 2.625 9.21288 2.625 9.20552L2.62528 9.18373C2.62571 9.17269 2.62647 9.16166 2.62755 9.15066L2.625 9.20552C2.625 9.17002 2.62829 9.1353 2.63458 9.10162C2.63603 9.09358 2.63777 9.08533 2.6397 9.0771C2.64369 9.06017 2.64831 9.04386 2.65363 9.02788C2.65624 9.01994 2.65928 9.01145 2.66253 9.00303C2.6691 8.9861 2.67624 8.96997 2.6841 8.95425C2.68776 8.94686 2.69184 8.93912 2.69613 8.93147C2.70316 8.91897 2.7104 8.9071 2.71806 8.89553C2.72346 8.88734 2.72944 8.87881 2.73569 8.87042L2.74056 8.86394C2.75571 8.84414 2.77215 8.82538 2.78975 8.80777L2.79043 8.80725L7.32793 4.2885C7.54805 4.06929 7.90421 4.07003 8.12342 4.29015C8.32271 4.49026 8.34021 4.8028 8.17637 5.02267L8.12177 5.08564L4.551 8.64257L14.4375 8.64302C14.7482 8.64302 15 8.89486 15 9.20552Z" fill="black"/>
</svg>
