<svg width="90" height="90" viewBox="0 0 90 90" fill="none" xmlns="http://www.w3.org/2000/svg">
<g clip-path="url(#clip0_426_8247)">
<path d="M11.5151 62.6633H78.6477C75.5715 62.6633 73.8323 61.0538 72.8449 58.3861C68.0692 45.504 80.79 7.96301 45.0804 7.96301C9.37135 7.96301 22.0942 45.504 17.3179 58.3861C16.3291 61.0538 14.5892 62.6633 11.5151 62.6633Z" fill="#FF7D50"/>
<path d="M5.01524 69.1622C5.01524 72.752 7.92593 75.662 11.515 75.662H78.6477C80.4426 75.662 82.0679 74.9348 83.2441 73.7586C84.4203 72.5824 85.1475 70.9571 85.1475 69.1622C85.1475 65.5731 82.2375 62.6631 78.6477 62.6631H11.515C9.72014 62.6631 8.09485 63.3902 6.91862 64.5665C5.7424 65.7427 5.01524 67.368 5.01524 69.1622Z" fill="#FF4200"/>
<path d="M17.3174 58.3861H52.2099C55.9714 58.3861 58.9796 55.2722 58.8629 51.5121C58.3712 35.6039 60.9084 8.26511 45.3414 7.96436C88.0728 8.18546 60.7573 62.6632 78.6465 62.6632H11.5145C14.5886 62.6632 16.3286 61.0537 17.3174 58.3861Z" fill="#FF4200"/>
<path d="M5.01552 69.1622C5.01552 72.752 7.92621 75.662 11.5153 75.662H59.8661C61.6603 75.662 63.2856 74.9348 64.4619 73.7586C65.6381 72.5824 66.3652 70.9571 66.3652 69.1622C66.3652 65.5731 63.4552 62.6631 59.8661 62.6631H11.5153C9.72041 62.6631 8.09512 63.3902 6.9189 64.5665C5.74268 65.7427 5.01552 67.368 5.01552 69.1622Z" fill="#FF7D50"/>
<path d="M32.0815 75.662C32.0815 81.6392 36.1148 86.6723 41.6052 88.1926C42.7121 88.4988 43.8773 88.6629 45.0804 88.6629C52.2613 88.6629 58.0813 82.8422 58.0813 75.662H32.0815Z" fill="#FF4200"/>
<path d="M32.7103 79.672C34.0486 83.8029 37.3994 87.0287 41.6051 88.1926C44.2494 87.4613 46.5551 85.9157 48.236 83.8427C49.5908 82.1714 48.3686 79.672 46.2173 79.672H32.7103Z" fill="#FF7D50"/>
<path d="M38.4737 8.46017C38.4593 8.29607 38.4538 8.13058 38.4538 7.96304C38.4538 4.30391 41.4215 1.33691 45.0799 1.33691C48.7411 1.33691 51.7061 4.30391 51.7061 7.96304C51.7061 8.13058 51.7012 8.29607 51.6868 8.46017" fill="#FF4200"/>
<path d="M11.5152 61.3256H11.5207C14.1087 61.3242 15.5698 59.9811 16.4062 56.8377C17.261 53.6228 17.2899 48.9605 17.3201 44.0242C17.3565 38.0435 17.3977 31.265 18.8843 25.2026C19.06 24.4857 19.7844 24.047 20.5013 24.2227C21.2175 24.3985 21.6562 25.1222 21.4811 25.8391C20.0687 31.5959 20.0289 38.2076 19.9932 44.0407C19.9616 49.152 19.9328 53.9798 18.99 57.5243C18.5801 59.0658 17.9923 60.3327 17.2329 61.3256H72.93C72.1706 60.3327 71.5828 59.0658 71.1729 57.5243C70.2301 53.9798 70.2006 49.152 70.1697 44.0407C70.1223 36.237 70.0681 27.3923 66.8752 20.6234C63.2813 13.0037 56.1526 9.29922 45.0811 9.29922C39.0009 9.29922 34.0254 10.4418 30.2935 12.696C27.0574 14.6502 24.6816 17.4277 23.0302 21.1871C22.7336 21.8627 21.9446 22.1704 21.269 21.873C20.5933 21.5764 20.2857 20.7882 20.5823 20.1118C22.437 15.8903 25.2391 12.6253 28.9113 10.4075C31.2555 8.9916 34.0083 7.97056 37.1435 7.34847C37.4594 3.24439 40.8974 0 45.0811 0C49.2648 0 52.7035 3.24508 53.0173 7.34984C56.0084 7.94241 58.6526 8.89753 60.922 10.2125C64.5736 12.3287 67.3902 15.4481 69.2936 19.4828C72.7378 26.7853 72.7941 35.9438 72.8428 44.0242C72.873 48.9605 72.9012 53.6228 73.7567 56.8377C74.5931 59.9811 76.0542 61.3242 78.6422 61.3256H78.6477C82.9688 61.3256 86.4844 64.8412 86.4844 69.1629C86.4844 73.484 82.9688 76.9996 78.6477 76.9996H70.1876C69.4494 76.9996 68.8507 76.4008 68.8507 75.6627C68.8507 74.9245 69.4494 74.3265 70.1876 74.3265H78.6477C81.4945 74.3265 83.8113 72.0097 83.8113 69.1629C83.8113 66.3161 81.4952 64 78.6484 63.9994H78.6477H78.6429H11.5207H11.5159H11.5145C8.66837 64 6.35231 66.3161 6.35231 69.1629C6.35231 72.0097 8.66905 74.3265 11.5159 74.3265H64.8407C65.5788 74.3265 66.1769 74.9245 66.1769 75.6627C66.1769 76.4008 65.5788 76.9996 64.8407 76.9996H59.3537C58.6773 84.2808 52.536 89.9998 45.0811 89.9998C37.6269 89.9998 31.4855 84.2808 30.8092 76.9996H11.5152C7.19414 76.9996 3.67852 73.484 3.67852 69.1629C3.67852 64.8412 7.19414 61.3256 11.5152 61.3256ZM45.0811 2.67311C42.5213 2.67311 40.3803 4.50164 39.8949 6.92069C41.536 6.72705 43.2636 6.62612 45.0811 6.62612C46.8987 6.62612 48.6262 6.72637 50.2666 6.92C49.7812 4.50095 47.6409 2.67311 45.0811 2.67311ZM45.0811 87.3267C51.0604 87.3267 56.0008 82.8031 56.6662 76.9996H33.4967C34.1621 82.8031 39.1025 87.3267 45.0811 87.3267Z" fill="#333333"/>
<path d="M23.619 8.38868C23.5949 8.40173 21.215 9.75991 18.8736 12.9151C15.737 17.1407 14.1474 22.4196 14.1474 28.6056C14.1474 29.3437 13.5486 29.9425 12.8105 29.9425C12.0723 29.9425 11.4736 29.3437 11.4736 28.6056C11.4736 20.0898 14.3815 14.4373 16.8212 11.1957C19.5019 7.63337 22.2079 6.11383 22.3219 6.05066C22.9667 5.69497 23.7755 5.92843 24.134 6.57113C24.4924 7.21452 24.261 8.02751 23.619 8.38868Z" fill="#333333"/>
<path d="M13.5345 8.87901C13.3196 9.01978 8.26657 12.4111 8.26657 20.9434C8.26657 21.6815 7.66781 22.2796 6.92967 22.2796C6.19152 22.2796 5.59346 21.6815 5.59346 20.9434C5.59346 10.8799 11.8275 6.79642 12.0932 6.6275C12.7133 6.23268 13.5331 6.41533 13.9314 7.034C14.3296 7.65198 14.1504 8.47733 13.5345 8.87901Z" fill="#333333"/>
<path d="M77.3523 29.9424C76.6141 29.9424 76.0154 29.3437 76.0154 28.6055C76.0154 22.4195 74.4251 17.1406 71.2892 12.915C68.9621 9.77978 66.5967 8.41885 66.5445 8.38863C65.9011 8.03089 65.6676 7.21928 66.024 6.57452C66.3817 5.92838 67.1947 5.69424 67.8409 6.05061C67.9548 6.11378 70.6609 7.63332 73.3416 11.1956C75.7805 14.4373 78.6885 20.0898 78.6885 28.6055C78.6885 29.3437 78.0904 29.9424 77.3523 29.9424Z" fill="#333333"/>
<path d="M83.2334 22.2795C82.4953 22.2795 81.8972 21.6814 81.8972 20.9432C81.8972 12.4179 76.8517 9.02445 76.6293 8.87957C76.0113 8.482 75.83 7.65872 76.2248 7.03799C76.621 6.4152 77.4471 6.23187 78.0705 6.62806C78.3356 6.79698 84.5703 10.8798 84.5703 20.9432C84.5703 21.6814 83.9716 22.2795 83.2334 22.2795Z" fill="#333333"/>
</g>
<defs>
<clipPath id="clip0_426_8247">
<rect width="90" height="90" fill="white" transform="matrix(-1 0 0 1 90 0)"/>
</clipPath>
</defs>
</svg>
