<svg width="90" height="90" viewBox="0 0 90 90" fill="none" xmlns="http://www.w3.org/2000/svg">
<g clip-path="url(#clip0_426_8220)">
<path d="M66.0973 88.4882C78.5668 88.4882 88.6754 78.3797 88.6754 65.9102C88.6754 53.4407 78.5668 43.3322 66.0973 43.3322C53.6278 43.3322 43.5193 53.4407 43.5193 65.9102C43.5193 78.3797 53.6278 88.4882 66.0973 88.4882Z" fill="#FF7D50"/>
<path d="M66.0968 43.3311C65.352 43.3311 64.6158 43.3681 63.8896 43.4386C75.3235 44.548 84.2613 54.1847 84.2613 65.9098C84.2613 77.6349 75.3237 87.2713 63.8896 88.3806C64.616 88.4511 65.352 88.4882 66.0968 88.4882C78.5667 88.4882 88.6755 78.3794 88.6755 65.9095C88.6755 53.4395 78.5665 43.3311 66.0968 43.3311Z" fill="#FF4200"/>
<path d="M73.5591 11.552V15.7973C73.5591 17.968 71.7993 19.7278 69.6286 19.7278C67.4579 19.7278 65.6981 17.968 65.6981 15.7973V11.552H18.8292V15.7973C18.8292 17.968 17.0695 19.7278 14.8988 19.7278C12.728 19.7278 10.9683 17.968 10.9683 15.7973V11.552H1.32422V75.5592H45.6796C44.2943 72.6332 43.5182 69.3622 43.5182 65.9099C43.5182 53.44 53.627 43.3311 66.097 43.3311C72.8853 43.3311 78.9729 46.3273 83.1121 51.0687V11.552H73.5591Z" fill="#EFE7E4"/>
<path d="M83.1117 25.8853H1.37012V30.2995H83.1117V25.8853Z" fill="#D8D1D0"/>
<path d="M14.8992 19.7275C12.7285 19.7275 10.9688 17.9678 10.9688 15.797V5.44194C10.9688 3.27122 12.7285 1.51147 14.8992 1.51147C17.0699 1.51147 18.8297 3.27122 18.8297 5.44194V15.797C18.8297 17.9678 17.0698 19.7275 14.8992 19.7275Z" fill="#FF7D50"/>
<path d="M14.8985 1.51147C14.2633 1.51147 13.6638 1.66317 13.1328 1.93071C14.4165 2.57741 15.2976 3.90649 15.2976 5.44194V15.797C15.2976 17.3325 14.4165 18.6616 13.1328 19.3083C13.6638 19.5758 14.2633 19.7275 14.8985 19.7275C17.0693 19.7275 18.829 17.9678 18.829 15.797V5.44194C18.829 3.27122 17.0691 1.51147 14.8985 1.51147Z" fill="#FF4200"/>
<path d="M69.629 19.7276C67.4582 19.7276 65.6985 17.9678 65.6985 15.7971V5.442C65.6985 3.27128 67.4582 1.51154 69.629 1.51154C71.7997 1.51154 73.5594 3.27128 73.5594 5.442V15.7971C73.5592 17.9678 71.7995 19.7276 69.629 19.7276Z" fill="#FF7D50"/>
<path d="M69.629 1.51154C68.9937 1.51154 68.3943 1.66306 67.8633 1.93077C69.147 2.57747 70.028 3.90656 70.028 5.442V15.7971C70.028 17.3326 69.147 18.6616 67.8633 19.3083C68.3941 19.5759 68.9937 19.7276 69.629 19.7276C71.7997 19.7276 73.5595 17.9678 73.5595 15.7971V5.442C73.5593 3.27128 71.7995 1.51154 69.629 1.51154Z" fill="#FF4200"/>
<path d="M23.0778 34.7986H14.5459V43.3305H23.0778V34.7986Z" fill="#53686A"/>
<path d="M38.7113 34.7986H30.1794V43.3305H38.7113V34.7986Z" fill="#53686A"/>
<path d="M54.3463 34.7986H45.8145V43.3305H54.3463V34.7986Z" fill="#53686A"/>
<path d="M69.9821 34.7986H61.4502V43.3305H69.9821V34.7986Z" fill="#53686A"/>
<path d="M23.0778 53.1158H14.5459V61.6477H23.0778V53.1158Z" fill="#53686A"/>
<path d="M38.7113 53.1158H30.1794V61.6477H38.7113V53.1158Z" fill="#53686A"/>
<path d="M73.5594 11.552V15.7973C73.5594 17.968 71.7997 19.7278 69.629 19.7278C67.4582 19.7278 65.6985 17.968 65.6985 15.7973V11.552H18.8296V15.7973C18.8296 17.968 17.0698 19.7278 14.8991 19.7278C12.7284 19.7278 10.9687 17.968 10.9687 15.7973V11.552H1.37012V25.8861H83.158V11.552H73.5594Z" fill="#FF7D50"/>
<path d="M83.1576 21.4709H1.37012V25.8852H83.1576V21.4709Z" fill="#FF4200"/>
<path d="M63.0112 74.4873C62.2916 74.4873 61.6011 74.2013 61.0922 73.6925L54.9198 67.5202C53.8601 66.4604 53.8601 64.7419 54.9198 63.6822C55.9796 62.6224 57.6979 62.6224 58.7577 63.6822L63.0111 67.9355L73.4368 57.5098C74.4966 56.45 76.2149 56.4498 77.2746 57.5096C78.3344 58.5694 78.3344 60.2878 77.2746 61.3476L64.9301 73.6922C64.4212 74.2013 63.7309 74.4873 63.0112 74.4873Z" fill="#EFE7E4"/>
<path d="M63.011 75.8116C64.0896 75.8116 65.1037 75.3915 65.8664 74.6289L78.211 62.2843C78.9737 61.5218 79.3938 60.5076 79.3938 59.4288C79.3938 58.3504 78.9737 57.3361 78.211 56.5732C76.6369 54.9989 74.075 54.9991 72.5004 56.5734L63.0112 66.0628L59.6942 62.7456C58.1199 61.1715 55.5581 61.1715 53.9836 62.7456C52.4091 64.3201 52.4091 66.8821 53.9836 68.4566L60.156 74.6289C60.9183 75.3915 61.9324 75.8116 63.011 75.8116ZM55.4491 65.6012C55.4491 65.2299 55.5936 64.8812 55.856 64.6187C56.1269 64.3478 56.4827 64.2123 56.8385 64.2123C57.1942 64.2123 57.55 64.3478 57.8209 64.6187L62.0743 68.8723C62.3225 69.1205 62.6594 69.2601 63.0107 69.2601C63.3619 69.2601 63.6988 69.1205 63.947 68.8723L74.3726 58.4465C74.9144 57.9046 75.7959 57.9046 76.3375 58.4462C76.6001 58.7088 76.7446 59.0579 76.7446 59.4288C76.7446 59.8 76.6 60.1488 76.3377 60.4112L63.9929 72.756C63.7305 73.0184 63.3816 73.1629 63.0105 73.1629C62.6394 73.1629 62.2905 73.0184 62.028 72.756L55.8557 66.5836C55.5937 66.3212 55.4491 65.9722 55.4491 65.6012Z" fill="#333333"/>
<path d="M84.4363 50.5974V40.0959C84.4363 39.3643 83.8434 38.7715 83.112 38.7715C82.3806 38.7715 81.7877 39.3643 81.7877 40.0959V47.8793C80.0228 46.3437 78.052 45.0838 75.9428 44.13C75.8638 44.0942 75.784 44.0601 75.7046 44.0251C75.6241 43.9898 75.5439 43.9537 75.4631 43.9193C75.3216 43.8586 75.1792 43.8005 75.0363 43.7426C75.0182 43.7352 75.0001 43.7277 74.9818 43.7203C73.8 43.2453 72.5718 42.8627 71.3062 42.5802V34.7987C71.3062 34.0671 70.7133 33.4744 69.9818 33.4744H61.4494C60.718 33.4744 60.1251 34.0671 60.1251 34.7987V42.7551C56.0011 43.8108 52.2225 45.961 49.1414 49.0611C48.6258 49.58 48.6285 50.4186 49.1472 50.934C49.6659 51.4492 50.5044 51.4468 51.0202 50.9282C55.0401 46.883 60.3944 44.6551 66.0967 44.6551C66.2857 44.6551 66.4743 44.6577 66.6626 44.6627C66.6954 44.6635 66.7281 44.6655 66.761 44.6664C66.9185 44.6713 67.076 44.6771 67.233 44.6853C67.2579 44.6866 67.2824 44.6887 67.3073 44.6901C67.474 44.6996 67.6404 44.7105 67.8067 44.7238C67.8187 44.7249 67.8308 44.7259 67.8429 44.727C70.2898 44.9286 72.6648 45.5514 74.8695 46.5509C74.9454 46.5855 75.0205 46.6216 75.096 46.6569C75.1736 46.6931 75.2513 46.7292 75.3284 46.7664C75.4639 46.8322 75.5989 46.8991 75.7329 46.9677C75.7461 46.9744 75.7594 46.9809 75.7726 46.9877C82.6413 50.5142 87.3515 57.6722 87.3515 65.9095C87.3515 77.6292 77.817 87.1639 66.0969 87.1639C55.1111 87.1639 46.0452 78.786 44.9529 68.0836C44.9524 68.0785 44.952 68.0734 44.9515 68.0683C44.9346 67.9001 44.9195 67.731 44.9063 67.5617C44.9035 67.5253 44.9016 67.4886 44.8989 67.4522C44.8887 67.3101 44.8791 67.1683 44.8717 67.0256C44.8676 66.945 44.865 66.8644 44.8618 66.7837C44.8576 66.6808 44.8529 66.5784 44.8501 66.4754C44.8453 66.2873 44.8425 66.0987 44.8425 65.9099C44.8425 62.01 45.9076 58.1969 47.9225 54.8833C48.3026 54.2584 48.1041 53.4438 47.4792 53.0638C46.854 52.6837 46.0396 52.8822 45.6597 53.5073C43.3923 57.2358 42.194 61.5245 42.194 65.9099C42.194 66.1062 42.1968 66.302 42.2014 66.4975C42.2024 66.5423 42.2044 66.587 42.2058 66.6316C42.2104 66.7877 42.216 66.9438 42.2235 67.0994C42.2253 67.1367 42.2276 67.1737 42.2297 67.211C42.2387 67.3819 42.2497 67.5527 42.2622 67.7231C42.2634 67.7392 42.2647 67.7558 42.2659 67.7721C42.4355 69.9945 42.9091 72.1571 43.6838 74.235H2.6485V52.8231C2.6485 52.0915 2.05559 51.4988 1.32416 51.4988C0.592734 51.4988 0 52.0915 0 52.8231V75.559C0 76.2906 0.59291 76.8834 1.32434 76.8834H44.8662C48.8489 84.5573 56.8703 89.8128 66.0969 89.8128C79.2772 89.8128 90 79.0898 90 65.9099C90 60.0887 87.9075 54.7478 84.4363 50.5974ZM68.6577 42.0068H62.7738V36.123H68.6577V42.0068Z" fill="#333333"/>
<path d="M24.4028 34.7987C24.4028 34.0671 23.8099 33.4744 23.0784 33.4744H14.546C13.8146 33.4744 13.2217 34.0671 13.2217 34.7987V43.3309C13.2217 44.0625 13.8146 44.6553 14.546 44.6553H23.0784C23.8099 44.6553 24.4028 44.0625 24.4028 43.3309V34.7987ZM21.7541 42.0068H15.8704V36.123H21.7543C21.7541 36.123 21.7541 42.0068 21.7541 42.0068Z" fill="#333333"/>
<path d="M40.0366 34.7987C40.0366 34.0671 39.4437 33.4744 38.7122 33.4744H30.1798C29.4484 33.4744 28.8555 34.0671 28.8555 34.7987V43.3309C28.8555 44.0625 29.4484 44.6553 30.1798 44.6553H38.7122C39.4437 44.6553 40.0366 44.0625 40.0366 43.3309V34.7987ZM37.3881 42.0068H31.5041V36.123H37.3881V42.0068Z" fill="#333333"/>
<path d="M45.8146 33.4744C45.0831 33.4744 44.4902 34.0671 44.4902 34.7987V43.3309C44.4902 44.0625 45.0831 44.6553 45.8146 44.6553H54.347C55.0784 44.6553 55.6713 44.0625 55.6713 43.3309V34.7987C55.6713 34.0671 55.0784 33.4744 54.347 33.4744H45.8146ZM53.0228 42.0068H47.1389V36.123H53.0228V42.0068Z" fill="#333333"/>
<path d="M23.0784 51.792H14.546C13.8146 51.792 13.2217 52.3847 13.2217 53.1163V61.6488C13.2217 62.3804 13.8146 62.9731 14.546 62.9731H23.0784C23.8099 62.9731 24.4028 62.3804 24.4028 61.6488V53.1163C24.4028 52.3847 23.8099 51.792 23.0784 51.792ZM21.7541 60.3244H15.8704V54.4405H21.7543C21.7541 54.4405 21.7541 60.3244 21.7541 60.3244Z" fill="#333333"/>
<path d="M38.7122 51.792H30.1798C29.4484 51.792 28.8555 52.3847 28.8555 53.1163V61.6488C28.8555 62.3804 29.4484 62.9731 30.1798 62.9731H38.7122C39.4437 62.9731 40.0366 62.3804 40.0366 61.6488V53.1163C40.0364 52.3847 39.4437 51.792 38.7122 51.792ZM37.3879 60.3244H31.504V54.4405H37.3879V60.3244Z" fill="#333333"/>
<path d="M1.32434 48.8503C2.05576 48.8503 2.64867 48.2574 2.64867 47.526V27.2104H81.788V34.7989C81.788 35.5305 82.3809 36.1232 83.1124 36.1232C83.8438 36.1232 84.4367 35.5305 84.4367 34.7989V26.2258C84.4655 26.1172 84.4822 26.0038 84.4822 25.8862V11.5522C84.4822 10.8206 83.8893 10.2278 83.1579 10.2278H83.1124H74.8839V5.44217C74.8839 2.5446 72.5265 0.187195 69.6291 0.187195C66.7315 0.187195 64.3743 2.5446 64.3743 5.44217V10.228H20.1537V5.44217C20.1537 2.5446 17.7963 0.187195 14.8989 0.187195C12.0015 0.187195 9.64406 2.5446 9.64406 5.44217V10.228H1.36986H1.32434C0.59291 10.228 0 10.8207 0 11.5522V47.5261C0 48.2576 0.59291 48.8503 1.32434 48.8503ZM67.0228 5.44217C67.0228 4.00499 68.192 2.83587 69.6289 2.83587C71.0661 2.83587 72.235 4.00516 72.235 5.44217V15.7973C72.235 15.9769 72.2167 16.1524 72.1821 16.3218C71.9387 17.5083 70.8862 18.4036 69.6289 18.4036C68.1917 18.4036 67.0228 17.2343 67.0228 15.7973V5.44217ZM12.2927 5.44217C12.2927 4.00499 13.4619 2.83587 14.8989 2.83587C16.3359 2.83587 17.505 4.00516 17.505 5.44217V15.7973C17.505 17.2345 16.3357 18.4036 14.8989 18.4036C13.462 18.4036 12.2927 17.2343 12.2927 15.7973V5.44217ZM2.6942 12.8763H9.64406V15.7971C9.64406 18.6947 12.0013 21.0521 14.8989 21.0521C17.7964 21.0521 20.1537 18.6947 20.1537 15.7971V12.8763H64.3744V15.7971C64.3744 18.6947 66.7318 21.0521 69.6292 21.0521C72.5268 21.0521 74.884 18.6947 74.884 15.7971V12.8763H81.7884V24.5617H2.6942V12.8763Z" fill="#333333"/>
</g>
<defs>
<clipPath id="clip0_426_8220">
<rect width="90" height="90" fill="white"/>
</clipPath>
</defs>
</svg>
