<svg width="12" height="12" viewBox="0 0 12 12" fill="none" xmlns="http://www.w3.org/2000/svg">
<g clip-path="url(#clip0_399_6854)">
<path d="M10.4471 0.705811H9.38832V1.76463C9.38832 1.9764 9.21185 2.11758 9.03538 2.11758C8.85891 2.11758 8.68244 1.9764 8.68244 1.76463V0.705811H3.03538V1.76463C3.03538 1.9764 2.85891 2.11758 2.68244 2.11758C2.50597 2.11758 2.3295 1.9764 2.3295 1.76463V0.705811H1.27067C0.741263 0.705811 0.353027 1.16463 0.353027 1.76463V3.03522H11.6471V1.76463C11.6471 1.16463 11.0119 0.705811 10.4471 0.705811ZM0.353027 3.7764V10.2352C0.353027 10.8705 0.741263 11.294 1.30597 11.294H10.4824C11.0471 11.294 11.6824 10.8352 11.6824 10.2352V3.7764H0.353027ZM3.4942 9.70581H2.64715C2.50597 9.70581 2.36479 9.59993 2.36479 9.42346V8.54111C2.36479 8.39993 2.47067 8.25875 2.64715 8.25875H3.5295C3.67067 8.25875 3.81185 8.36463 3.81185 8.54111V9.42346C3.77656 9.59993 3.67067 9.70581 3.4942 9.70581ZM3.4942 6.52934H2.64715C2.50597 6.52934 2.36479 6.42346 2.36479 6.24699V5.36463C2.36479 5.22346 2.47067 5.08228 2.64715 5.08228H3.5295C3.67067 5.08228 3.81185 5.18816 3.81185 5.36463V6.24699C3.77656 6.42346 3.67067 6.52934 3.4942 6.52934ZM6.31773 9.70581H5.43538C5.2942 9.70581 5.15303 9.59993 5.15303 9.42346V8.54111C5.15303 8.39993 5.25891 8.25875 5.43538 8.25875H6.31773C6.45891 8.25875 6.60009 8.36463 6.60009 8.54111V9.42346C6.60009 9.59993 6.4942 9.70581 6.31773 9.70581ZM6.31773 6.52934H5.43538C5.2942 6.52934 5.15303 6.42346 5.15303 6.24699V5.36463C5.15303 5.22346 5.25891 5.08228 5.43538 5.08228H6.31773C6.45891 5.08228 6.60009 5.18816 6.60009 5.36463V6.24699C6.60009 6.42346 6.4942 6.52934 6.31773 6.52934ZM9.14126 9.70581H8.25891C8.11773 9.70581 7.97656 9.59993 7.97656 9.42346V8.54111C7.97656 8.39993 8.08244 8.25875 8.25891 8.25875H9.14126C9.28244 8.25875 9.42362 8.36463 9.42362 8.54111V9.42346C9.42362 9.59993 9.31773 9.70581 9.14126 9.70581ZM9.14126 6.52934H8.25891C8.11773 6.52934 7.97656 6.42346 7.97656 6.24699V5.36463C7.97656 5.22346 8.08244 5.08228 8.25891 5.08228H9.14126C9.28244 5.08228 9.42362 5.18816 9.42362 5.36463V6.24699C9.42362 6.42346 9.31773 6.52934 9.14126 6.52934Z" fill="#FF7D50"/>
</g>
<defs>
<clipPath id="clip0_399_6854">
<rect width="12" height="12" fill="white"/>
</clipPath>
</defs>
</svg>
