<svg width="90" height="90" viewBox="0 0 90 90" fill="none" xmlns="http://www.w3.org/2000/svg">
<g clip-path="url(#clip0_426_8260)">
<path d="M60.2261 2.98412L87.0034 29.7641C89.2423 32.0031 89.2423 35.6315 87.0034 37.8704L37.8876 86.9894C35.6466 89.2305 32.0119 89.2305 29.7709 86.9894L2.99358 60.2096C0.754743 57.9706 0.754743 54.3421 2.99358 52.1033L52.1096 2.98412C54.3504 0.743168 57.9853 0.743168 60.2261 2.98412Z" fill="#FF7D50"/>
<path d="M4.10059 61.3186L61.321 4.09822L69.0874 11.8646L11.867 69.085L4.10059 61.3186Z" fill="#53686A"/>
<path d="M20.7949 68.9655L54.4618 35.2986L60.3124 41.1492L26.6455 74.816L20.7949 68.9655Z" fill="#EFE7E4"/>
<path d="M71.6492 88.6705C81.0556 88.6705 88.6811 81.045 88.6811 71.6385C88.6811 62.232 81.0556 54.6066 71.6492 54.6066C62.2427 54.6066 54.6172 62.232 54.6172 71.6385C54.6172 81.045 62.2427 88.6705 71.6492 88.6705Z" fill="#FF7D50"/>
<path d="M71.6496 54.6062C70.4442 54.6062 69.2683 54.7322 68.1338 54.9704C75.8534 56.5907 81.65 63.4371 81.65 71.6383C81.65 79.8396 75.8532 86.686 68.1338 88.3063C69.2683 88.5444 70.4442 88.6705 71.6496 88.6705C81.056 88.6705 88.6815 81.045 88.6815 71.6385C88.6815 62.2321 81.0562 54.6062 71.6496 54.6062Z" fill="#FF4200"/>
<path d="M61.2578 40.2146L55.4065 34.363C54.7849 33.8481 54.1633 33.8481 53.5419 34.363L19.8705 68.0356C19.3557 68.5505 19.3557 69.3851 19.8705 69.9L25.7218 75.7517C26.3434 76.2665 26.965 76.2665 27.5864 75.7517L61.2576 42.079C61.7727 41.5643 61.7727 40.7295 61.2578 40.2146ZM26.6542 72.9549L22.6673 68.9678L54.4741 37.1598L58.461 41.1468L26.6542 72.9549Z" fill="#333333"/>
<path d="M57.6263 51.0845L41.6707 67.0288C41.1556 67.5435 41.1553 68.3784 41.6701 68.8933C42.2916 69.4083 42.913 69.4087 43.5346 68.894L59.4902 52.9496C60.0052 52.4349 60.0056 51.6001 59.4907 51.0852C58.9762 50.5701 58.1414 50.5699 57.6263 51.0845Z" fill="#333333"/>
<path d="M36.9493 71.7482L30.2663 78.4275C29.7513 78.9422 29.7511 79.777 30.2658 80.2919C30.8872 80.8069 31.5088 80.8071 32.1302 80.2924L38.8131 73.6131C39.3282 73.0984 39.3284 72.2636 38.8137 71.7487C38.2988 71.2337 37.464 71.2335 36.9493 71.7482Z" fill="#333333"/>
<path d="M73.3706 53.369L87.9361 38.8027C90.6847 36.0537 90.6847 31.5807 87.9361 28.8318L61.1587 2.05179C58.4384 -0.668712 53.8978 -0.668712 51.1775 2.05179L2.06147 51.1708C-0.687157 53.9198 -0.687157 58.3927 2.06147 61.1417L28.8388 87.9216C31.5591 90.6421 36.0997 90.6421 38.8201 87.9216L53.3806 73.3604C54.2517 82.6742 62.1119 89.9887 71.6494 89.9887C75.6857 89.9887 79.5158 88.7025 82.7257 86.2691C83.306 85.8292 83.4197 85.0022 82.9797 84.4219C82.5397 83.8418 81.7132 83.7277 81.1325 84.1679C78.385 86.2509 75.1058 87.3519 71.6494 87.3519C62.985 87.3519 55.9359 80.3028 55.9359 71.6382C55.9359 62.9736 62.985 55.9246 71.6494 55.9246C80.3141 55.9246 87.3632 62.9737 87.3632 71.6382C87.3632 74.9275 86.3577 78.077 84.4558 80.7461C84.0332 81.3392 84.1714 82.1625 84.7643 82.5849C85.3578 83.0075 86.1808 82.8691 86.6031 82.2764C88.8256 79.1579 90 75.4792 90 71.638C90 62.1001 82.6849 54.2395 73.3706 53.369ZM3.92606 53.0352L53.0422 3.9162C54.8242 2.13406 57.7815 2.25641 59.4682 4.09023L51.8921 11.6667C51.3772 12.1816 51.3772 13.0164 51.8922 13.5311C52.5136 14.046 53.1352 14.046 53.7566 13.5311L61.3326 5.955L67.2354 11.8583L11.8726 67.2245L5.96978 61.3212L49.8722 17.4161C50.3871 16.9012 50.3871 16.0663 49.8721 15.5515C49.3574 15.0366 48.5225 15.0368 48.0077 15.5515L4.10536 59.4564L3.92606 59.2771C2.20527 57.5563 2.20527 54.7562 3.92606 53.0352ZM53.4131 69.5985L36.9555 86.0571C35.2658 87.7467 32.3969 87.7504 30.7036 86.0571L13.7372 69.0891L69.1 13.7229L86.0717 30.6962C87.7924 32.4171 87.7924 35.2173 86.0717 36.9381L69.6091 53.4017C61.1173 54.3455 54.3564 61.1067 53.4131 69.5985Z" fill="#333333"/>
<path d="M68.1397 74.4123L64.6922 70.9648L64.6921 70.9647C63.7866 70.0595 62.3189 70.0594 61.4134 70.9648C60.5081 71.8702 60.5079 73.3382 61.4136 74.2436L66.5004 79.3304L66.5335 79.3635L66.5696 79.3934C67.0054 79.7544 67.5342 80.0095 68.1399 80.0095C68.7456 80.0095 69.2743 79.7544 69.7101 79.3933L69.7461 79.3635L69.7792 79.3304L81.8854 67.2242C82.7907 66.3189 82.7909 64.8508 81.8853 63.9455L81.885 63.9452C80.9796 63.0408 79.5121 63.0399 78.6064 63.9456L79.3093 64.6485L78.6064 63.9456L68.1397 74.4123Z" fill="#EFE7E4" stroke="#333333" stroke-width="2"/>
</g>
<defs>
<clipPath id="clip0_426_8260">
<rect width="90" height="90" fill="white"/>
</clipPath>
</defs>
</svg>
