<svg width="22" height="22" viewBox="0 0 22 22" fill="none" xmlns="http://www.w3.org/2000/svg">
<path d="M13.75 18.2188H2.75C2.4765 18.2188 2.21419 18.1101 2.0208 17.9167C1.8274 17.7233 1.71875 17.461 1.71875 17.1875C1.71875 16.914 1.8274 16.6517 2.0208 16.4583C2.21419 16.2649 2.4765 16.1562 2.75 16.1562H13.75C14.0235 16.1562 14.2858 16.2649 14.4792 16.4583C14.6726 16.6517 14.7812 16.914 14.7812 17.1875C14.7812 17.461 14.6726 17.7233 14.4792 17.9167C14.2858 18.1101 14.0235 18.2188 13.75 18.2188ZM20.2812 11C20.2812 10.7265 20.1726 10.4642 19.9792 10.2708C19.7858 10.0774 19.5235 9.96875 19.25 9.96875H2.75C2.4765 9.96875 2.21419 10.0774 2.0208 10.2708C1.8274 10.4642 1.71875 10.7265 1.71875 11C1.71875 11.2735 1.8274 11.5358 2.0208 11.7292C2.21419 11.9226 2.4765 12.0312 2.75 12.0312H19.25C19.5235 12.0312 19.7858 11.9226 19.9792 11.7292C20.1726 11.5358 20.2812 11.2735 20.2812 11ZM14.7812 4.8125C14.7812 4.539 14.6726 4.27669 14.4792 4.0833C14.2858 3.8899 14.0235 3.78125 13.75 3.78125H2.75C2.4765 3.78125 2.21419 3.8899 2.0208 4.0833C1.8274 4.27669 1.71875 4.539 1.71875 4.8125C1.71875 5.086 1.8274 5.34831 2.0208 5.5417C2.21419 5.7351 2.4765 5.84375 2.75 5.84375H13.75C14.0235 5.84375 14.2858 5.7351 14.4792 5.5417C14.6726 5.34831 14.7812 5.086 14.7812 4.8125Z" fill="#2E3234"/>
</svg>
