<svg width="90" height="90" viewBox="0 0 90 90" fill="none" xmlns="http://www.w3.org/2000/svg">
<g clip-path="url(#clip0_426_8278)">
<path d="M87.2126 28.393L79.382 20.5618C76.6362 23.3077 72.1839 23.3077 69.438 20.5618C66.6922 17.8159 66.6922 13.3643 69.438 10.6185L68.0215 9.2019L32.2246 44.9995H75.578L87.2126 33.3643C88.5858 31.9917 88.5858 29.7656 87.2126 28.393Z" fill="#FF7D50"/>
<path d="M15.9902 56.1106L53.7757 18.3252L71.6744 36.2233L33.8883 74.0087L15.9902 56.1106Z" fill="#EFE7E4"/>
<path d="M81.2109 66.6204C81.2109 62.767 84.3111 59.6393 88.1529 59.5912C87.7979 58.025 86.3999 56.8542 84.7266 56.8542H5.27344C3.60008 56.8542 2.20207 58.025 1.84708 59.5912C5.68886 59.6393 8.78906 62.767 8.78906 66.6204C8.78906 70.5034 5.64079 73.6517 1.75781 73.6517V84.7259C1.75781 86.667 3.3316 88.2415 5.27344 88.2415H84.7266C86.6684 88.2415 88.2422 86.667 88.2422 84.7259V73.6517C84.3592 73.6517 81.2109 70.5034 81.2109 66.6204Z" fill="#FF7D50"/>
<path d="M18.2812 53.9641H71.7188V79.2766H18.2812V53.9641Z" fill="#EFE7E4"/>
<path d="M23.0654 38.1157C23.5282 38.1157 23.9814 37.9276 24.3083 37.6007C24.6351 37.2732 24.8232 36.82 24.8232 36.3579C24.8232 35.8951 24.6351 35.4419 24.3083 35.1151C23.9814 34.7882 23.5282 34.6001 23.0654 34.6001C22.6013 34.6001 22.1501 34.7882 21.8226 35.1151C21.4958 35.4419 21.3076 35.8951 21.3076 36.3579C21.3076 36.82 21.4958 37.2732 21.8226 37.6007C22.1501 37.9276 22.6033 38.1157 23.0654 38.1157Z" fill="#333333"/>
<path d="M48.2464 35.7879C47.9182 35.4611 47.4664 35.2729 47.0022 35.2729C46.5401 35.2729 46.0862 35.4611 45.7594 35.7879C45.4325 36.1148 45.2444 36.5686 45.2444 37.0308C45.2444 37.4929 45.4325 37.9467 45.7594 38.2736C46.0862 38.6004 46.5401 38.7886 47.0022 38.7886C47.4664 38.7886 47.9182 38.6004 48.2464 38.2736C48.5732 37.9467 48.76 37.4949 48.76 37.0308C48.76 36.5686 48.5732 36.1148 48.2464 35.7879Z" fill="#333333"/>
<path d="M53.1559 32.6364C53.6187 32.6364 54.0719 32.4482 54.3987 32.1214C54.7256 31.7945 54.9124 31.3407 54.9124 30.8785C54.9124 30.4164 54.7256 29.9626 54.3987 29.6357C54.0719 29.3089 53.6187 29.1207 53.1559 29.1207C52.6924 29.1207 52.2386 29.3089 51.9117 29.6357C51.5849 29.9626 51.3967 30.4164 51.3967 30.8785C51.3967 31.3407 51.5849 31.7945 51.9117 32.1214C52.2386 32.4482 52.6924 32.6364 53.1559 32.6364Z" fill="#333333"/>
<path d="M84.7264 43.2415H79.8217L88.4556 34.6077C89.4512 33.6114 89.9998 32.2868 89.9998 30.8785C89.9998 29.4702 89.4512 28.1457 88.4556 27.15L80.6244 19.3189C79.9384 18.6329 78.8254 18.6329 78.1387 19.3189C77.1431 20.3152 75.8186 20.8638 74.4103 20.8638C73.0013 20.8638 71.6774 20.3152 70.6811 19.3189C69.6848 18.3232 69.1368 16.9987 69.1368 15.5904C69.1368 14.1814 69.6855 12.8575 70.6811 11.8612C71.0107 11.5316 71.1961 11.0846 71.1961 10.6184C71.1961 10.1522 71.0107 9.70515 70.6811 9.37556L62.8506 1.54507C61.8543 0.548751 60.5304 0.00012207 59.1214 0.00012207C57.7131 0.00012207 56.3886 0.548751 55.393 1.54507L26.3603 30.5771C25.6736 31.263 25.6736 32.3761 26.3603 33.0627C27.0469 33.7494 28.16 33.7494 28.8466 33.0627L57.8786 4.03072C58.2109 3.69839 58.6518 3.51574 59.1214 3.51574C59.5911 3.51574 60.0326 3.69839 60.3643 4.03072L67.0762 10.742C66.1293 12.1675 65.6212 13.8401 65.6212 15.5904C65.6212 17.938 66.5351 20.1449 68.1954 21.8052C69.8557 23.4648 72.0626 24.3794 74.4103 24.3794C76.1605 24.3794 77.8325 23.8713 79.2587 22.9244L85.9699 29.6357C86.6552 30.321 86.6552 31.4361 85.9699 32.1213L74.8497 43.2415H67.1435L72.9189 37.4662C73.6048 36.7795 73.6048 35.6665 72.9189 34.9805L55.0201 17.0818C54.3335 16.3951 53.2204 16.3951 52.5338 17.0818L26.374 43.2415H5.27343C2.36549 43.2415 0 45.607 0 48.515V59.5892C0 60.5594 0.786894 61.347 1.75781 61.347C4.66575 61.347 7.03124 63.7125 7.03124 66.6204C7.03124 69.5276 4.66575 71.8938 1.75781 71.8938C0.786894 71.8938 0 72.6807 0 73.6516V84.7258C0 87.6331 2.36549 89.9993 5.27343 89.9993H84.7264C87.6343 89.9993 89.9998 87.6331 89.9998 84.7258V73.6516C89.9998 72.6807 89.2129 71.8938 88.242 71.8938C85.3341 71.8938 82.9686 69.5276 82.9686 66.6204C82.9686 63.7125 85.3341 61.347 88.242 61.347C89.2129 61.347 89.9998 60.5594 89.9998 59.5892V48.515C89.9998 45.607 87.6343 43.2415 84.7264 43.2415ZM53.7766 20.8102L69.1897 36.2233L62.1715 43.2415H55.211L60.3643 38.0876C61.0509 37.4016 61.0509 36.2886 60.3643 35.6019C59.6783 34.9153 58.5653 34.9153 57.8786 35.6019L50.239 43.2409H31.346L53.7766 20.8102ZM86.4842 58.0078C82.4776 58.8242 79.453 62.3756 79.453 66.6204C79.453 70.8645 82.4776 74.4159 86.4842 75.233V84.7258C86.4842 85.6947 85.6959 86.4836 84.7264 86.4836H5.27343C4.30389 86.4836 3.51562 85.6947 3.51562 84.7258V75.233C7.52219 74.4159 10.5469 70.8645 10.5469 66.6204C10.5469 62.3756 7.52219 58.8249 3.51562 58.0078V48.515C3.51562 47.5454 4.30389 46.7572 5.27343 46.7572H84.7264C85.6959 46.7572 86.4842 47.5454 86.4842 48.515V58.0078Z" fill="#333333"/>
<path d="M37.5417 63.6444C37.8685 63.3169 38.0566 62.8637 38.0566 62.4016C38.0566 61.9388 37.8685 61.4856 37.5417 61.1588C37.2148 60.8319 36.7609 60.6438 36.2988 60.6438C35.8367 60.6438 35.3828 60.8319 35.056 61.1588C34.7292 61.4856 34.541 61.9388 34.541 62.4016C34.541 62.8637 34.7292 63.3169 35.056 63.6444C35.3828 63.9713 35.8367 64.1594 36.2988 64.1594C36.7609 64.1594 37.2148 63.9713 37.5417 63.6444Z" fill="#333333"/>
<path d="M54.944 63.6444C55.2708 63.3169 55.459 62.8637 55.459 62.4016C55.459 61.9388 55.2708 61.4856 54.944 61.1588C54.6172 60.8319 54.1633 60.6438 53.7012 60.6438C53.2391 60.6438 52.7852 60.8319 52.4583 61.1588C52.1315 61.4856 51.9434 61.9388 51.9434 62.4016C51.9434 62.8637 52.1315 63.3169 52.4583 63.6444C52.7852 63.9713 53.2391 64.1594 53.7012 64.1594C54.1633 64.1594 54.6172 63.9713 54.944 63.6444Z" fill="#333333"/>
<path d="M46.2428 63.6444C46.5697 63.3169 46.7578 62.8637 46.7578 62.4016C46.7578 61.9388 46.5697 61.4856 46.2428 61.1588C45.916 60.8319 45.4621 60.6438 45 60.6438C44.5379 60.6438 44.084 60.8319 43.7572 61.1588C43.4303 61.4856 43.2422 61.9388 43.2422 62.4016C43.2422 62.8637 43.4303 63.3169 43.7572 63.6444C44.084 63.9713 44.5379 64.1594 45 64.1594C45.4621 64.1594 45.916 63.9713 46.2428 63.6444Z" fill="#333333"/>
<path d="M27.5977 64.1594C28.0598 64.1594 28.5136 63.9713 28.8405 63.6444C29.1673 63.3169 29.3555 62.8637 29.3555 62.4016C29.3555 61.9388 29.1673 61.4856 28.8405 61.1588C28.5136 60.8319 28.0598 60.6438 27.5977 60.6438C27.1355 60.6438 26.6817 60.8319 26.3548 61.1588C26.028 61.4856 25.8398 61.9388 25.8398 62.4016C25.8398 62.8637 26.028 63.3169 26.3548 63.6444C26.6817 63.9713 27.1355 64.1594 27.5977 64.1594Z" fill="#333333"/>
<path d="M63.6452 63.6444C63.972 63.3169 64.1602 62.8637 64.1602 62.4016C64.1602 61.9388 63.972 61.4856 63.6452 61.1588C63.3183 60.8319 62.8645 60.6438 62.4023 60.6438C61.9402 60.6438 61.4864 60.8319 61.1595 61.1588C60.8327 61.4856 60.6445 61.9388 60.6445 62.4016C60.6445 62.8637 60.8327 63.3169 61.1595 63.6444C61.4864 63.9713 61.9402 64.1594 62.4023 64.1594C62.8645 64.1594 63.3183 63.9713 63.6452 63.6444Z" fill="#333333"/>
<path d="M27.5977 72.5969H62.4023C63.3733 72.5969 64.1602 71.8093 64.1602 70.8391C64.1602 69.8682 63.3733 69.0813 62.4023 69.0813H27.5977C26.6267 69.0813 25.8398 69.8682 25.8398 70.8391C25.8398 71.8093 26.6267 72.5969 27.5977 72.5969Z" fill="#53686A"/>
<path d="M33.9824 77.5188C33.5203 77.5188 33.0664 77.7069 32.7396 78.0338C32.4128 78.3606 32.2246 78.8138 32.2246 79.2766C32.2246 79.7387 32.4128 80.1919 32.7396 80.5194C33.0664 80.8463 33.5203 81.0344 33.9824 81.0344C34.4466 81.0344 34.8984 80.8463 35.2253 80.5194C35.5542 80.1919 35.7402 79.7387 35.7402 79.2766C35.7402 78.8138 35.5542 78.3606 35.2253 78.0338C34.8984 77.7069 34.4466 77.5188 33.9824 77.5188Z" fill="#333333"/>
<path d="M71.7188 52.2063H18.2812C17.3103 52.2063 16.5234 52.9932 16.5234 53.9641V79.2766C16.5234 80.2468 17.3103 81.0344 18.2812 81.0344H25.6036C26.5746 81.0344 27.3615 80.2468 27.3615 79.2766C27.3615 78.3057 26.5746 77.5188 25.6036 77.5188H20.0391V55.7219H69.9609V77.5188H41.424C40.453 77.5188 39.6661 78.3057 39.6661 79.2766C39.6661 80.2468 40.453 81.0344 41.424 81.0344H71.7188C72.6897 81.0344 73.4766 80.2468 73.4766 79.2766V53.9641C73.4766 52.9932 72.6897 52.2063 71.7188 52.2063Z" fill="#333333"/>
</g>
<defs>
<clipPath id="clip0_426_8278">
<rect width="90" height="90" fill="white"/>
</clipPath>
</defs>
</svg>
