<svg width="94" height="94" viewBox="0 0 94 94" fill="none" xmlns="http://www.w3.org/2000/svg">
<g clip-path="url(#clip0_426_8295)">
<path d="M89.2997 53.2666H4.69974C2.96925 53.2666 1.56641 54.6694 1.56641 56.3999V72.0666C1.56641 73.7971 2.96925 75.1999 4.69974 75.1999H89.2997C91.0302 75.1999 92.4331 73.7971 92.4331 72.0666V56.3999C92.4331 54.6694 91.0302 53.2666 89.2997 53.2666Z" fill="#EFE7E4"/>
<path d="M89.2999 53.2666H84.5999C86.3282 53.2718 87.728 54.6716 87.7332 56.3999V72.0666C87.728 73.795 86.3282 75.1948 84.5999 75.1999H89.2999C91.0282 75.1948 92.428 73.795 92.4332 72.0666V56.3999C92.428 54.6716 91.0282 53.2718 89.2999 53.2666Z" fill="#EFE7E4"/>
<path d="M79.8999 42.3V53.2667H14.0999V42.3C14.0999 38.839 16.9055 36.0333 20.3665 36.0333H73.6332C77.0942 36.0333 79.8999 38.839 79.8999 42.3Z" fill="#FF7D50"/>
<path d="M79.8999 75.2V86.1666C79.8999 89.6276 77.0942 92.4333 73.6332 92.4333H20.3665C16.9055 92.4333 14.0999 89.6276 14.0999 86.1666V75.2H79.8999Z" fill="#FF7D50"/>
<path d="M72.066 26.6333V36.0333H62.666V26.6333C62.666 17.9809 55.6517 10.9667 46.9993 10.9667C38.3468 10.9667 31.3326 17.9809 31.3326 26.6333V36.0333H21.9326V26.6333C21.9326 12.7894 33.1553 1.56665 46.9993 1.56665C60.8432 1.56665 72.066 12.7894 72.066 26.6333Z" fill="#EFE7E4"/>
<path d="M42.2995 10.9667C33.6527 10.9805 26.6466 17.9866 26.6328 26.6333V36.0333H31.3328V26.6333C31.3513 18.8989 37.0039 12.3319 44.6495 11.1625C43.8722 11.0385 43.0866 10.973 42.2995 10.9667Z" fill="#FF7D50"/>
<path d="M64.7341 8.89867C60.0304 4.19705 53.65 1.5592 46.9994 1.56667C46.2067 1.56667 45.4233 1.61367 44.6494 1.68573C57.5354 2.87244 67.3882 13.6928 67.3661 26.6333V36.0333H72.0661V26.6333C72.0735 19.9828 69.4357 13.6023 64.7341 8.89867Z" fill="#FF7D50"/>
<path d="M4.7 76.7667H12.5333V86.1667C12.5385 90.4908 16.0426 93.9948 20.3667 94H73.6333C77.9574 93.9948 81.4615 90.4908 81.4667 86.1667V76.7667H89.3C91.8957 76.7667 94 74.6624 94 72.0667V56.4C94 53.8043 91.8957 51.7 89.3 51.7H81.4667V42.3C81.4615 37.9759 77.9574 34.4718 73.6333 34.4667V26.6333C73.6333 11.9242 61.7092 0 47 0C32.2908 0 20.3667 11.9242 20.3667 26.6333V34.4667C16.0426 34.4718 12.5385 37.9759 12.5333 42.3V51.7H4.7C2.10426 51.7 0 53.8043 0 56.4V72.0667C0 74.6624 2.10426 76.7667 4.7 76.7667ZM78.3333 86.1667C78.3333 88.7624 76.2291 90.8667 73.6333 90.8667H20.3667C17.7709 90.8667 15.6667 88.7624 15.6667 86.1667V76.7667H78.3333V86.1667ZM23.5 26.6333C23.5 13.6546 34.0213 3.13333 47 3.13333C59.9787 3.13333 70.5 13.6546 70.5 26.6333V34.4667H64.2333V26.6333C64.2333 17.1156 56.5177 9.4 47 9.4C37.4823 9.4 29.7667 17.1156 29.7667 26.6333V34.4667H23.5V26.6333ZM32.9 34.4667V26.6333C32.9 18.8461 39.2128 12.5333 47 12.5333C54.7872 12.5333 61.1 18.8461 61.1 26.6333V34.4667H32.9ZM15.6667 42.3C15.6667 39.7043 17.7709 37.6 20.3667 37.6H73.6333C76.2291 37.6 78.3333 39.7043 78.3333 42.3V51.7H15.6667V42.3ZM3.13333 56.4C3.13333 55.5348 3.83475 54.8333 4.7 54.8333H89.3C90.1653 54.8333 90.8667 55.5348 90.8667 56.4V72.0667C90.8667 72.9319 90.1653 73.6333 89.3 73.6333H4.7C3.83475 73.6333 3.13333 72.9319 3.13333 72.0667V56.4Z" fill="#333333"/>
<path d="M6.53016 68.2361C6.76073 68.5818 7.11923 68.8218 7.52675 68.9032C7.93428 68.9845 8.35744 68.9007 8.70313 68.67L10.967 67.1598V68.9332C10.967 69.7985 11.6684 70.4999 12.5336 70.4999C13.3989 70.4999 14.1003 69.7985 14.1003 68.9332V67.1598L16.3641 68.67C16.8298 68.9807 17.4258 69.0193 17.9277 68.7713C18.4296 68.5233 18.761 68.0264 18.7972 67.4678C18.8334 66.9092 18.5688 66.3737 18.1031 66.0631L15.3536 64.2332L18.0984 62.4034C18.5641 62.0927 18.8287 61.5572 18.7925 60.9986C18.7563 60.44 18.4249 59.9431 17.923 59.6951C17.4211 59.4472 16.8251 59.4858 16.3594 59.7964L14.1003 61.3067V59.5332C14.1003 58.668 13.3989 57.9666 12.5336 57.9666C11.6684 57.9666 10.967 58.668 10.967 59.5332V61.3067L8.70313 59.7964C7.98324 59.3162 7.01037 59.5105 6.53016 60.2304C6.04995 60.9503 6.24424 61.9231 6.96413 62.4034L9.71363 64.2332L6.96413 66.0631C6.61839 66.2937 6.37842 66.6522 6.29703 67.0597C6.21564 67.4672 6.29951 67.8904 6.53016 68.2361Z" fill="#333333"/>
<path d="M23.7636 68.2361C23.9941 68.5818 24.3526 68.8218 24.7602 68.9032C25.1677 68.9845 25.5908 68.9007 25.9365 68.67L28.2004 67.1598V68.9332C28.2004 69.7985 28.9018 70.4999 29.767 70.4999C30.6323 70.4999 31.3337 69.7985 31.3337 68.9332V67.1598L33.5975 68.67C34.0632 68.9807 34.6592 69.0193 35.1611 68.7713C35.663 68.5233 35.9944 68.0264 36.0306 67.4678C36.0668 66.9092 35.8022 66.3737 35.3365 66.0631L32.587 64.2332L35.3318 62.4034C35.7975 62.0927 36.0621 61.5572 36.0259 60.9986C35.9897 60.44 35.6583 59.9431 35.1564 59.6951C34.6545 59.4472 34.0585 59.4858 33.5928 59.7964L31.3337 61.3067V59.5332C31.3337 58.668 30.6323 57.9666 29.767 57.9666C28.9018 57.9666 28.2004 58.668 28.2004 59.5332V61.3067L25.9365 59.7964C25.2166 59.3162 24.2438 59.5105 23.7636 60.2304C23.2833 60.9503 23.4776 61.9231 24.1975 62.4034L26.947 64.2332L24.2022 66.0631C23.8557 66.2929 23.6148 66.6511 23.5325 67.0587C23.4502 67.4662 23.5334 67.8898 23.7636 68.2361Z" fill="#333333"/>
<path d="M58.2294 68.2361C58.46 68.5818 58.8184 68.8218 59.226 68.9032C59.6335 68.9845 60.0567 68.9007 60.4023 68.67L62.6662 67.1598V68.9332C62.6662 69.7985 63.3676 70.4999 64.2328 70.4999C65.0981 70.4999 65.7995 69.7985 65.7995 68.9332V67.1598L68.0633 68.67C68.529 68.9807 69.1251 69.0193 69.6269 68.7713C70.1288 68.5233 70.4603 68.0264 70.4964 67.4678C70.5326 66.9092 70.268 66.3737 69.8024 66.0631L67.0528 64.2332L69.7976 62.4034C70.2633 62.0927 70.5279 61.5572 70.4917 60.9986C70.4556 60.44 70.1241 59.9431 69.6222 59.6951C69.1204 59.4472 68.5243 59.4858 68.0587 59.7964L65.7995 61.3067V59.5332C65.7995 58.668 65.0981 57.9666 64.2328 57.9666C63.3676 57.9666 62.6662 58.668 62.6662 59.5332V61.3067L60.4023 59.7964C59.6825 59.3162 58.7096 59.5105 58.2294 60.2304C57.7492 60.9503 57.9435 61.9231 58.6633 62.4034L61.4129 64.2332L58.6681 66.0631C58.3215 66.2929 58.0806 66.6511 57.9983 67.0587C57.9161 67.4662 57.9992 67.8898 58.2294 68.2361Z" fill="#333333"/>
<path d="M40.997 68.2361C41.2275 68.5818 41.586 68.8218 41.9936 68.9032C42.4011 68.9845 42.8242 68.9007 43.1699 68.67L45.4338 67.1598V68.9332C45.4338 69.7985 46.1352 70.4999 47.0004 70.4999C47.8657 70.4999 48.5671 69.7985 48.5671 68.9332V67.1598L50.8309 68.67C51.2966 68.9807 51.8926 69.0193 52.3945 68.7713C52.8964 68.5233 53.2278 68.0264 53.264 67.4678C53.3002 66.9092 53.0356 66.3737 52.5699 66.0631L49.8204 64.2332L52.5652 62.4034C53.0309 62.0927 53.2955 61.5572 53.2593 60.9986C53.2231 60.44 52.8917 59.9431 52.3898 59.6951C51.8879 59.4472 51.2919 59.4858 50.8262 59.7964L48.5671 61.3067V59.5332C48.5671 58.668 47.8657 57.9666 47.0004 57.9666C46.1352 57.9666 45.4338 58.668 45.4338 59.5332V61.3067L43.1699 59.7964C42.45 59.3162 41.4772 59.5105 40.997 60.2304C40.5167 60.9503 40.711 61.9231 41.4309 62.4034L44.1804 64.2332L41.4356 66.0631C41.0891 66.2929 40.8482 66.6511 40.7659 67.0587C40.6836 67.4662 40.7668 67.8898 40.997 68.2361Z" fill="#333333"/>
<path d="M25.0667 40.7333H20.3667C19.5015 40.7333 18.8 41.4347 18.8 42.2999V46.9999C18.8 47.8652 19.5015 48.5666 20.3667 48.5666C21.232 48.5666 21.9334 47.8652 21.9334 46.9999V43.8666H25.0667C25.932 43.8666 26.6334 43.1652 26.6334 42.2999C26.6334 41.4347 25.932 40.7333 25.0667 40.7333Z" fill="#333333"/>
<path d="M76.7666 70.5H86.1666C87.0319 70.5 87.7333 69.7986 87.7333 68.9334C87.7333 68.0681 87.0319 67.3667 86.1666 67.3667H76.7666C75.9014 67.3667 75.2 68.0681 75.2 68.9334C75.2 69.7986 75.9014 70.5 76.7666 70.5Z" fill="#333333"/>
</g>
<defs>
<clipPath id="clip0_426_8295">
<rect width="94" height="94" fill="white"/>
</clipPath>
</defs>
</svg>
