<svg width="18" height="18" viewBox="0 0 18 18" fill="none" xmlns="http://www.w3.org/2000/svg">
<path d="M12.0921 1.72285L11.5617 1.19103C11.4484 1.07747 11.3181 0.983141 11.1758 0.911249C11.3181 0.983263 11.4485 1.07774 11.5617 1.19145L12.0921 1.72285ZM12.0921 1.72285L12.0931 1.72184L15.5428 5.18744L11.5621 1.19184L12.0921 1.72285ZM10.5044 11.9969L15.7468 9.19143L10.7663 11.8589L10.5034 11.9998L10.504 11.9979L10.5042 11.9971L10.5044 11.9969ZM8.14571 15.6418L9.00299 16.4991L9.00292 16.4993L9.00264 16.5001L9.00257 16.5002L9.00245 16.5003H9.00233L9.00221 16.5002L5.78229 13.2788L5.25186 12.7481L4.72141 13.2788L0.919776 17.0819L0.918002 17.0822L0.918082 17.0817L4.7213 13.2785L5.25175 12.748L4.72118 12.2177L1.49976 8.99779L1.49969 8.99768L1.49969 8.99755L1.49975 8.99743L1.49987 8.99736L1.50061 8.99711L5.71859 7.59111L6.00167 7.49675L6.00113 7.49777L6.00098 7.4979L2.65284 8.61395L1.50159 8.9977L2.35968 9.85579L8.14571 15.6418ZM9.08595 1.71191L8.02233 3.70682L9.08595 1.71122V1.71191Z" fill="#333333" stroke="#333333" stroke-width="1.5"/>
</svg>
