<svg width="26" height="26" viewBox="0 0 26 26" fill="none" xmlns="http://www.w3.org/2000/svg">
<path d="M13.1733 11.7759C13.0649 11.7651 12.9349 11.7651 12.8158 11.7759C10.2374 11.6892 8.18994 9.57675 8.18994 6.97675C8.18994 4.32258 10.3349 2.16675 12.9999 2.16675C15.6541 2.16675 17.8099 4.32258 17.8099 6.97675C17.7991 9.57675 15.7516 11.6892 13.1733 11.7759Z" stroke="#8F8F8F" stroke-width="1.5" stroke-linecap="round" stroke-linejoin="round"/>
<path d="M7.75678 15.7733C5.13511 17.5283 5.13511 20.3883 7.75678 22.1324C10.7359 24.1258 15.6218 24.1258 18.6009 22.1324C21.2226 20.3774 21.2226 17.5174 18.6009 15.7733C15.6326 13.7908 10.7468 13.7908 7.75678 15.7733Z" stroke="#8F8F8F" stroke-width="1.5" stroke-linecap="round" stroke-linejoin="round"/>
</svg>
