<svg width="22" height="22" viewBox="0 0 22 22" fill="none" xmlns="http://www.w3.org/2000/svg">
<path d="M16.5906 7.70589L8.97152 3.89635C3.85356 1.33292 1.75297 3.43351 4.3164 8.55147L5.09077 10.1002C5.31329 10.5541 5.31329 11.0793 5.09077 11.5332L4.3164 13.0731C1.75297 18.191 3.84466 20.2916 8.97152 17.7282L16.5906 13.9186C20.0085 12.2097 20.0085 9.41484 16.5906 7.70589ZM13.7156 11.4798H8.90921C8.54428 11.4798 8.24165 11.1772 8.24165 10.8123C8.24165 10.4473 8.54428 10.1447 8.90921 10.1447H13.7156C14.0806 10.1447 14.3832 10.4473 14.3832 10.8123C14.3832 11.1772 14.0806 11.4798 13.7156 11.4798Z" fill="white"/>
</svg>
