<svg width="18" height="18" viewBox="0 0 18 18" fill="none" xmlns="http://www.w3.org/2000/svg">
<path d="M0.75 3.56269H2.802C2.96298 4.15499 3.31438 4.67786 3.80199 5.05064C4.28961 5.42342 4.88634 5.62538 5.50012 5.62538C6.11391 5.62538 6.71064 5.42342 7.19825 5.05064C7.68587 4.67786 8.03727 4.15499 8.19825 3.56269H17.25C17.4489 3.56269 17.6397 3.48367 17.7803 3.34302C17.921 3.20237 18 3.0116 18 2.81269C18 2.61378 17.921 2.42301 17.7803 2.28236C17.6397 2.14171 17.4489 2.06269 17.25 2.06269H8.19825C8.03727 1.47039 7.68587 0.947523 7.19825 0.574745C6.71064 0.201968 6.11391 0 5.50012 0C4.88634 0 4.28961 0.201968 3.80199 0.574745C3.31438 0.947523 2.96298 1.47039 2.802 2.06269H0.75C0.551087 2.06269 0.360322 2.14171 0.21967 2.28236C0.0790176 2.42301 0 2.61378 0 2.81269C0 3.0116 0.0790176 3.20237 0.21967 3.34302C0.360322 3.48367 0.551087 3.56269 0.75 3.56269ZM5.49975 1.50019C5.75934 1.50019 6.01309 1.57717 6.22893 1.72139C6.44477 1.86561 6.613 2.07059 6.71234 2.31042C6.81168 2.55025 6.83767 2.81415 6.78703 3.06875C6.73639 3.32335 6.61138 3.55721 6.42783 3.74077C6.24427 3.92432 6.0104 4.04933 5.7558 4.09997C5.5012 4.15061 5.2373 4.12462 4.99748 4.02528C4.75765 3.92594 4.55266 3.75772 4.40844 3.54188C4.26423 3.32604 4.18725 3.07228 4.18725 2.81269C4.18765 2.46472 4.32605 2.13111 4.57211 1.88505C4.81816 1.639 5.15177 1.50059 5.49975 1.50019Z" fill="black"/>
<path d="M17.25 8.25019H15.198C15.0373 7.65776 14.686 7.1347 14.1984 6.76176C13.7109 6.38883 13.1141 6.18677 12.5002 6.18677C11.8864 6.18677 11.2896 6.38883 10.802 6.76176C10.3145 7.1347 9.96321 7.65776 9.8025 8.25019H0.75C0.551087 8.25019 0.360322 8.32921 0.21967 8.46986C0.0790176 8.61052 0 8.80128 0 9.00019C0 9.19911 0.0790176 9.38987 0.21967 9.53052C0.360322 9.67118 0.551087 9.75019 0.75 9.75019H9.8025C9.96321 10.3426 10.3145 10.8657 10.802 11.2386C11.2896 11.6116 11.8864 11.8136 12.5002 11.8136C13.1141 11.8136 13.7109 11.6116 14.1984 11.2386C14.686 10.8657 15.0373 10.3426 15.198 9.75019H17.25C17.4489 9.75019 17.6397 9.67118 17.7803 9.53052C17.921 9.38987 18 9.19911 18 9.00019C18 8.80128 17.921 8.61052 17.7803 8.46986C17.6397 8.32921 17.4489 8.25019 17.25 8.25019ZM12.5002 10.3127C12.2407 10.3127 11.9869 10.2357 11.7711 10.0915C11.5552 9.94728 11.387 9.74229 11.2877 9.50247C11.1883 9.26264 11.1623 8.99874 11.213 8.74414C11.2636 8.48954 11.3886 8.25567 11.5722 8.07212C11.7557 7.88856 11.9896 7.76356 12.2442 7.71291C12.4988 7.66227 12.7627 7.68826 13.0025 7.7876C13.2423 7.88694 13.4473 8.05517 13.5915 8.27101C13.7358 8.48685 13.8127 8.74061 13.8127 9.00019C13.8123 9.34817 13.6739 9.68178 13.4279 9.92783C13.1818 10.1739 12.8482 10.3123 12.5002 10.3127Z" fill="black"/>
<path d="M17.25 14.4377H8.19825C8.03727 13.8454 7.68587 13.3225 7.19825 12.9497C6.71064 12.577 6.11391 12.375 5.50012 12.375C4.88634 12.375 4.28961 12.577 3.80199 12.9497C3.31438 13.3225 2.96298 13.8454 2.802 14.4377H0.75C0.551087 14.4377 0.360322 14.5167 0.21967 14.6574C0.0790176 14.798 0 14.9888 0 15.1877C0 15.3866 0.0790176 15.5774 0.21967 15.718C0.360322 15.8587 0.551087 15.9377 0.75 15.9377H2.802C2.96298 16.53 3.31438 17.0529 3.80199 17.4256C4.28961 17.7984 4.88634 18.0004 5.50012 18.0004C6.11391 18.0004 6.71064 17.7984 7.19825 17.4256C7.68587 17.0529 8.03727 16.53 8.19825 15.9377H17.25C17.4489 15.9377 17.6397 15.8587 17.7803 15.718C17.921 15.5774 18 15.3866 18 15.1877C18 14.9888 17.921 14.798 17.7803 14.6574C17.6397 14.5167 17.4489 14.4377 17.25 14.4377ZM5.49975 16.5002C5.24016 16.5002 4.9864 16.4232 4.77056 16.279C4.55472 16.1348 4.3865 15.9298 4.28716 15.69C4.18782 15.4501 4.16182 15.1862 4.21247 14.9316C4.26311 14.677 4.38811 14.4432 4.57167 14.2596C4.75523 14.0761 4.98909 13.9511 5.24369 13.9004C5.49829 13.8498 5.76219 13.8758 6.00202 13.9751C6.24185 14.0744 6.44683 14.2427 6.59105 14.4585C6.73527 14.6743 6.81225 14.9281 6.81225 15.1877C6.81165 15.5356 6.67318 15.8691 6.42717 16.1151C6.18116 16.3611 5.84766 16.4996 5.49975 16.5002Z" fill="black"/>
</svg>
